# xmcd
#
# Track frame offsets: 
#        150
#        31235
#        44395
#        86063
#        110568
#        122868
#        146552
#        167991
#        229962
#
# Disc length: 3455 seconds
#
# Revision: 0
# Processed by: cddbd v1.5.2PL0 Copyright (c) Steve Scherf et al.
# Submitted via: ExactAudioCopy v0.95b3
#
DISCID=7d0d7d09
DTITLE=Jimi Hendrix  - Vibratory Fillmore 69 Merge Final Ver. 2.01 - D
DTITLE=isc 1  FLAC
DYEAR=1900
DGENRE=
TTITLE0=Intro
TTITLE1=Auld Lang Syne
TTITLE2=Who Knows
TTITLE3=Stepping Stone
TTITLE4=Burning Desire
TTITLE5=Fire
TTITLE6=Ezy Ryder
TTITLE7=Machine Gun
TTITLE8=Paper Airplanes Disc 1 Fade-out
EXTD=
EXTT0=
EXTT1=
EXTT2=
EXTT3=
EXTT4=
EXTT5=
EXTT6=
EXTT7=
EXTT8=
PLAYORDER=
